HIERARCHY
ROOT Hips
{
	OFFSET -3.958830 18.904000 13.208200
	CHANNELS 6 Xposition Yposition Zposition Zrotation Yrotation Xrotation 
	JOINT LHipJoint
	{
		OFFSET 0.000000 0.000000 0.000000
		CHANNELS 3 Zrotation Yrotation Xrotation
		JOINT LeftUpLeg
		{
			OFFSET 1.800000 -1.400000 0.085000
			CHANNELS 3 Zrotation Yrotation Xrotation
			JOINT LeftLeg
			{
				OFFSET 2.215000 -6.000000 0.000000
				CHANNELS 3 Zrotation Yrotation Xrotation
				JOINT LeftFoot
				{
					OFFSET 2.500000 -6.900000 0.000000
					CHANNELS 3 Zrotation Yrotation Xrotation
					JOINT LeftToeBase
					{
						OFFSET 0.200000 -0.500000 1.950000
						CHANNELS 3 Zrotation Yrotation Xrotation
						End Site
						{
							OFFSET 0.000000 0.000000 0.000000
						}
					}
				}
			}
		}
	}
	JOINT RHipJoint
	{
		OFFSET 0.000000 0.000000 0.000000
		CHANNELS 3 Zrotation Yrotation Xrotation
		JOINT RightUpLeg
		{
			OFFSET -1.800000 -1.400000 0.085000
			CHANNELS 3 Zrotation Yrotation Xrotation
			JOINT RightLeg
			{
				OFFSET -2.215000 -6.000000 0.000000
				CHANNELS 3 Zrotation Yrotation Xrotation
				JOINT RightFoot
				{
					OFFSET -2.500000 -6.900000 0.000000
					CHANNELS 3 Zrotation Yrotation Xrotation
					JOINT RightToeBase
					{
						OFFSET -0.200000 -0.500000 1.950000
						CHANNELS 3 Zrotation Yrotation Xrotation
						End Site
						{
							OFFSET 0.000000 0.000000 0.000000
						}
					}
				}
			}
		}
	}
	JOINT LowerBack
	{
		OFFSET 0.000000 0.000000 0.000000
		CHANNELS 3 Zrotation Yrotation Xrotation
		JOINT Spine
		{
			OFFSET -0.087000 1.940000 -0.288900
			CHANNELS 3 Zrotation Yrotation Xrotation
			JOINT Spine1
			{
				OFFSET 0.000000 1.950000 0.060000
				CHANNELS 3 Zrotation Yrotation Xrotation
				JOINT Neck
				{
					OFFSET 0.000000 0.000000 0.000000
					CHANNELS 3 Zrotation Yrotation Xrotation
					JOINT Neck1
					{
						OFFSET 0.000000 1.600000 0.340000
						CHANNELS 3 Zrotation Yrotation Xrotation
						JOINT Head
						{
							OFFSET 0.000000 1.667000 -0.240000
							CHANNELS 3 Zrotation Yrotation Xrotation
							End Site
							{
								OFFSET 0.000000 0.000000 0.000000
							}
						}
					}
				}
				JOINT LeftShoulder
				{
					OFFSET 0.000000 0.000000 0.000000
					CHANNELS 3 Zrotation Yrotation Xrotation
					JOINT LeftArm
					{
						OFFSET 2.700000 1.550000 -0.730000
						CHANNELS 3 Zrotation Yrotation Xrotation
						JOINT LeftForeArm
						{
							OFFSET 5.450000 0.000000 0.000000
							CHANNELS 3 Zrotation Yrotation Xrotation
							JOINT LeftHand
							{
								OFFSET 3.450000 0.000000 0.000000
								CHANNELS 3 Zrotation Yrotation Xrotation
								JOINT LeftHandIndex1
								{
									OFFSET 0.750000 0.000000 0.000000
									CHANNELS 3 Zrotation Yrotation Xrotation
									End Site
									{
										OFFSET 0.000000 0.000000 0.000000
									}
								}
							}
						}
					}
				}
				JOINT RightShoulder
				{
					OFFSET 0.000000 0.000000 0.000000
					CHANNELS 3 Zrotation Yrotation Xrotation
					JOINT RightArm
					{
						OFFSET -2.700000 1.550000 -0.730000
						CHANNELS 3 Zrotation Yrotation Xrotation
						JOINT RightForeArm
						{
							OFFSET -5.450000 0.000000 0.000000
							CHANNELS 3 Zrotation Yrotation Xrotation
							JOINT RightHand
							{
								OFFSET -3.450000 0.000000 0.000000
								CHANNELS 3 Zrotation Yrotation Xrotation
								JOINT RightHandIndex1
								{
									OFFSET -0.750000 0.000000 0.000000
									CHANNELS 3 Zrotation Yrotation Xrotation
									End Site
									{
										OFFSET 0.000000 0.000000 0.000000
									}
								}
							}
						}
					}
				}
			}
		}
	}
}
MOTION
Frames: 10
Frame Time: 0.016667
0.661520 17.473270 -1.002600 2.765715 16.513314 4.683644 -15.016619 14.439434 2.835295 5.783603 -1.202172 -3.334197 -3.323084 7.266055 22.731641 0.218179 5.344971 2.957181 -0.471930 -0.885570 -0.140350 18.124631 -10.741176 3.622376 3.460052 3.501290 -22.294603 6.405567 -3.789086 11.405648 0.376099 -2.045393 3.890890 -0.561080 0.466610 -0.084310 -4.052158 -2.916625 -8.120672 9.078318 -9.693317 22.855972 -4.515583 -8.128469 -26.348391 0.519371 -5.521092 -15.185368 -13.748279 8.064164 36.687694 2.174480 5.080430 12.965150 10.908650 20.972334 3.841861 -25.454682 7.451147 10.506069 -96.050655 -80.658553 84.867376 -3.787267 0.915108 0.335260 0.159070 -0.341520 -0.088770 -10.726298 -17.814581 8.595505 49.416388 -21.131621 -0.581735 171.579043 63.393025 166.343977 1.924786 -2.192550 -0.407220 0.101550 0.254910 -0.114170 
0.606400 17.497220 -0.926820 3.705664 10.833000 4.787187 -15.030595 14.472262 2.959492 4.987209 -1.398933 -4.416865 -4.396039 7.992530 25.222712 0.367995 5.515834 2.831675 -0.311270 -0.679130 -0.036600 18.079946 -10.751422 3.602082 2.562053 3.134842 -21.201822 7.491961 -3.891200 10.640337 0.257406 -2.072084 3.846818 -0.507310 0.309670 -0.054210 -3.777705 -3.025801 -8.233424 4.788567 -7.740321 22.206262 -1.361488 -6.363369 -26.376683 0.409189 -5.694362 -15.458840 -15.663801 9.309578 39.522419 2.314070 6.383840 11.746010 10.593894 20.238857 4.104421 -23.548814 7.568329 9.601363 -104.149824 -76.027164 91.409829 -3.423422 2.232830 0.354250 0.061280 -0.211270 -0.050580 -9.023605 -17.707586 8.455076 49.359812 -24.513778 -2.691226 174.627586 63.694320 170.217808 1.979534 -2.260954 -0.282480 0.014990 0.129880 -0.101810 
0.480080 17.576190 -0.815570 7.291845 2.606463 3.443099 -15.070882 14.335515 3.210729 1.731161 -1.548602 -4.698136 -5.137346 8.971115 29.547710 0.631333 5.921571 2.640012 -0.187510 -0.519880 0.058630 18.003274 -11.048869 3.409364 0.203764 2.124571 -18.902515 6.195568 -3.747017 10.356205 0.133166 -2.123952 3.807234 -0.499350 0.140160 -0.032680 -3.346877 -2.485591 -8.281345 -6.736776 -5.070024 23.579384 6.374089 -4.269587 -27.897425 0.852969 -5.562430 -16.192742 -17.572686 11.669483 43.511656 1.521790 9.629710 10.079500 11.134970 20.432616 5.387941 -26.055558 7.905780 9.546274 -122.751271 -73.880285 114.352939 -3.169183 3.295273 0.398220 -0.057170 -0.069350 -0.022010 -8.875547 -19.059071 8.026739 48.178567 -25.161971 -1.839488 172.540298 62.381370 166.911571 2.064722 -2.298012 -0.165670 -0.081050 0.011640 -0.095120 
0.400810 17.601280 -0.786240 10.081553 -4.760418 -1.153378 -15.022430 14.128551 3.371092 -0.749535 -1.815042 -3.055330 -5.546619 9.918416 33.799708 0.807832 6.698173 2.385560 -0.169590 -0.477980 0.054580 18.089704 -11.200527 3.110078 -2.971956 0.914786 -14.228635 5.657704 -4.026874 9.874422 0.013877 -2.471448 3.692701 -0.477220 0.143100 -0.047550 -3.346920 -2.228419 -8.067526 -14.415022 -3.833442 27.577700 11.559465 -4.505412 -27.196652 -0.359031 -6.454590 -15.571566 -20.948499 15.632021 41.452117 2.960850 12.167370 5.323880 11.634685 19.444744 6.968206 -30.533876 5.791418 8.733677 -129.129308 -75.792747 123.150344 -3.156943 3.284088 0.463930 -0.103580 -0.028970 -0.015870 -5.968619 -19.966943 6.099326 48.886634 -21.833587 -0.482420 168.135001 61.256264 160.027038 2.061755 -2.155053 -0.186510 -0.016620 0.023670 -0.094110 
0.361690 17.624810 -0.792110 12.575164 -12.070498 -9.316157 -15.038499 14.002864 3.534823 -2.448326 -1.529093 1.409961 -6.539572 11.150841 36.865525 1.188459 7.441157 2.163387 -0.023410 -0.269920 0.101560 18.133198 -11.184081 2.847834 -6.636340 -0.215818 -6.608220 4.701798 -4.435781 9.389335 -0.220817 -3.132002 3.475027 -0.419920 0.028020 -0.028240 -3.260007 -2.532055 -7.916260 -21.415750 -0.727366 34.727843 15.707721 -3.064432 -24.928227 -1.887022 -6.847909 -14.156030 -22.919092 16.902777 37.952426 2.321960 13.616490 0.086970 11.361281 17.197437 8.075450 -39.092279 -2.047974 7.895059 -137.600020 -80.153773 134.599002 -2.944489 3.379028 0.447070 -0.197090 0.064500 0.060710 -1.740530 -18.982932 4.765279 52.621631 -17.268944 0.483496 166.279593 60.192717 156.108306 2.127137 -2.169379 -0.070760 -0.088670 -0.108130 -0.042370 
0.355640 17.600280 -0.852720 14.686303 -20.066576 -19.148414 -15.518203 14.643945 3.591219 -2.900142 -1.129280 5.073466 -6.070553 11.889048 39.428137 1.421216 8.245959 1.945855 0.010350 -0.220200 0.156120 17.815585 -10.186465 2.516854 -9.262022 -0.758214 2.384187 3.806921 -4.963641 9.341581 -0.403342 -3.843227 3.257024 -0.396500 0.011040 0.009990 -1.968935 -5.912770 -7.796905 -31.454932 4.502953 35.486792 21.317633 0.000954 -9.063554 -3.198824 -7.356047 -12.588288 -21.781626 15.640649 31.927281 -3.868580 15.932840 -6.001450 5.215658 8.557869 9.870247 -42.889488 -6.402994 4.615918 170.942607 -76.391546 -174.353299 -3.228068 3.672309 0.410350 -0.174660 0.081640 0.057660 5.870759 -7.022344 6.120535 56.985117 -7.743823 -3.950398 172.527908 60.358336 159.392395 2.244020 -2.067597 -0.039380 -0.083480 -0.123170 -0.043990 
0.422810 17.581810 -0.819660 13.991141 -36.477144 -25.061328 -15.881226 15.198540 3.316067 -0.374882 -0.872308 4.909495 -7.867715 13.860861 41.470439 1.504226 9.150550 1.643672 0.073620 -0.128030 0.213570 17.720824 -8.918251 2.271566 -7.817190 -1.063460 8.036289 3.892471 -5.201830 8.425740 -0.502839 -4.267244 3.094797 -0.288480 0.039090 0.063470 -0.460074 -9.316233 -7.870536 -30.052759 7.596027 28.765633 19.964410 2.848994 10.261075 -3.525053 -7.929833 -13.832114 -20.771939 15.148600 26.141805 -8.005480 17.232700 -8.898970 4.632139 -0.897308 11.925298 -48.250257 -14.853467 0.826129 146.259942 -72.860267 -151.078620 -3.438155 3.512313 0.341870 -0.079010 0.055280 0.046240 4.168468 5.794843 8.153986 59.938893 2.775799 -9.491256 176.029122 65.846468 159.387378 2.242707 -2.000919 -0.037300 -0.065690 -0.109490 -0.066270 
0.528620 17.605920 -0.705920 11.625861 -51.460186 -27.517865 -15.824318 15.107355 2.912653 3.400467 -1.214693 3.290351 -9.354547 15.251848 43.134371 1.489996 9.789157 1.447299 0.224610 0.088950 0.358400 17.988883 -8.376300 2.061585 -6.052382 -1.581242 10.883078 4.491678 -5.631666 9.441290 -0.591812 -4.732907 2.904184 -0.081500 0.091170 0.137700 0.562902 -10.566799 -7.819803 -23.613545 7.614126 24.853057 16.504997 4.256025 25.088932 -4.913428 -6.668564 -14.015466 -15.410457 13.444368 22.382367 -11.258320 18.306550 -10.750410 8.372013 -10.491954 12.824238 -47.919576 -25.327123 -1.891837 127.817566 -69.573259 -132.458321 -3.743465 3.138736 0.211390 0.082380 0.044760 0.097570 -0.772515 15.862165 9.447791 57.867005 12.336838 -13.551239 177.770322 72.291283 157.819279 2.169377 -2.039441 -0.035080 -0.038840 -0.201100 -0.077480 
0.609200 17.640980 -0.556350 7.745643 -66.437263 -25.218374 -15.456912 14.680142 2.760586 7.264203 -1.136817 0.799093 -10.888891 15.610291 41.522118 1.252253 9.565465 1.363232 0.498020 0.410300 0.591140 18.314437 -8.892111 2.150588 -4.278854 -1.936970 9.922088 3.812877 -5.695557 11.569304 -0.698635 -4.779810 2.779415 0.125640 -0.061710 0.227540 0.598361 -9.109418 -7.467606 -15.022226 4.736455 21.168041 10.854103 3.372430 31.286757 -3.606835 -6.110049 -14.277581 -14.528656 16.316426 25.509545 -12.025040 20.543100 -14.783390 4.855093 -20.297858 13.251494 -43.899195 -26.526008 -6.582143 118.316707 -66.680914 -119.476459 -3.954666 2.650651 0.242310 0.058440 0.180610 0.103480 -0.835249 25.458165 11.162337 51.582440 18.508378 -16.658753 169.880782 78.122630 147.915348 2.099446 -1.801892 0.054360 -0.096240 -0.313490 -0.131680 
0.681370 17.640900 -0.369750 -5.220579 -80.606998 -12.653051 -15.452303 14.554066 2.811523 10.611204 -0.014068 -0.682301 -11.455928 13.773958 33.772997 0.872842 8.135853 1.778704 0.657880 0.639570 0.711540 18.083107 -9.737676 2.591001 -2.142954 -2.142550 8.152269 3.098532 -5.591221 13.801895 -0.750216 -4.675212 2.800668 0.262810 -0.135780 0.178740 -1.037499 -6.070186 -7.162378 -3.458447 2.056219 20.626716 5.037260 1.701350 31.185978 -1.254390 -6.016691 -14.681136 -14.064297 17.961485 28.935632 -10.862440 21.742500 -15.959470 -1.576769 -27.349336 14.589000 -35.095741 -21.759214 -8.385776 131.098349 -66.072034 -138.334513 -3.706024 3.135389 0.256260 0.009620 0.269650 0.163900 2.505659 31.909580 10.908996 42.258948 20.350304 -20.267436 120.580013 78.496581 93.068671 2.937006 0.994624 0.073860 -0.045870 -0.446360 -0.126550 
